<?xml version="1.0" standalone="no"?>
<svg xmlns="http://www.w3.org/2000/svg" viewBox="0 0 169.288 29" width="169.288" height="29"><g fill="#4ad0ff" color="#4ad0ff" transform="translate(0, 0) scale(0.29)"><g transform="translate(2.567, 7.008)"><svg width="81.019" height="100.0" x="-2.567" y="-7.008" viewBox="-2.567 -7.008 81.019 100"><path d="M78.452,7.348v85.645H14.338c-9.412,0-16.905-6.541-16.905-16.271V2.562c0-5.261,4.305-9.569,9.566-9.569h59.333v73.525  H14.338c-6.538,0-11.164,3.506-11.164,9.887v0.321c0,6.377,4.626,10.524,11.164,10.524h59.648V7.348H78.452z M66.332,74.492H14.973  c-1.437,0-2.708,0.796-2.708,2.072c0,1.595,1.277,2.394,2.708,2.394h51.358V74.492z"></path></svg></g></g><line x1="35.496" y1="1" x2="35.496" y2="28" stroke="#0019ff" stroke-linecap="round"></line><path fill="#0019ff" fill-rule="nonzero" d="M0.94 2.35L0.05 2.28Q0 1.90 0 1.62Q0 1.34 0.07 0.94L0.07 0.94Q0.91 0.96 2.17 0.96Q3.43 0.96 4.34 0.94L4.34 0.94Q4.42 1.30 4.42 1.57Q4.42 1.85 4.37 2.28L4.37 2.28L3.53 2.35Q4.03 5.09 4.99 8.48Q5.95 11.88 6.94 14.28L6.94 14.28L7.08 14.28Q7.94 12.17 8.94 8.50Q9.94 4.82 10.34 2.35L10.34 2.35L9.46 2.28Q9.41 2.09 9.41 1.72Q9.41 1.34 9.48 0.94L9.48 0.94Q10.34 0.96 11.57 0.96Q12.79 0.96 13.54 0.94L13.54 0.94Q13.61 1.30 13.61 1.55Q13.61 1.80 13.56 2.28L13.56 2.28L12.72 2.35Q11.64 5.23 10.12 9.74Q8.59 14.26 8.06 16.37L8.06 16.37Q7.20 16.58 6.49 16.58Q5.78 16.58 5.57 16.56L5.57 16.56Q3.10 7.70 0.94 2.35L0.94 2.35ZM14.71 10.68Q14.71 4.90 19.22 4.90Q23.74 4.90 23.74 10.68L23.74 10.68Q23.74 13.34 22.90 14.90L22.90 14.90Q21.94 16.73 19.22 16.73Q16.51 16.73 15.55 14.90L15.55 14.90Q14.71 13.34 14.71 10.68L14.71 10.68ZM16.68 10.62Q16.68 15.00 19.22 15.00Q21.77 15.00 21.77 10.62Q21.77 6.24 19.22 6.24Q16.68 6.24 16.68 10.62ZM32.90 9.00Q32.23 9.00 31.86 8.58Q31.49 8.16 31.49 7.55Q31.49 6.94 31.66 6.62L31.66 6.62Q31.13 6.22 30.41 6.22L30.41 6.22Q27.86 6.22 27.86 10.73L27.86 10.73Q27.86 12.79 28.51 13.90Q29.16 15.00 30.35 15.00Q31.54 15.00 33.29 13.51L33.29 13.51Q33.98 14.23 34.18 15.41L34.18 15.41Q32.16 16.73 30.07 16.73Q27.98 16.73 26.94 15.22Q25.90 13.70 25.90 10.75Q25.90 7.80 27.05 6.35Q28.20 4.90 30.31 4.90L30.31 4.90Q31.97 4.90 33 5.68Q34.03 6.46 34.03 7.73Q34.03 9.00 32.90 9.00L32.90 9.00ZM44.45 8.09L44.45 8.09L44.35 11.54Q44.35 13.18 44.54 14.74L44.54 14.74L45.43 14.81Q45.48 15.19 45.48 15.52Q45.48 15.84 45.41 16.20L45.41 16.20Q44.71 16.22 42.70 16.44L42.70 16.44Q42.53 15.98 42.43 15.31L42.43 15.31Q40.56 16.73 39.20 16.73Q37.85 16.73 37.09 15.85Q36.34 14.98 36.34 13.36Q36.34 11.74 37.36 10.80Q38.38 9.86 39.92 9.86Q41.47 9.86 42.58 10.44L42.58 10.44Q42.60 10.18 42.60 9.58L42.60 9.58Q42.60 7.80 42.11 7.02Q41.62 6.24 40.61 6.24Q39.60 6.24 39.14 6.62L39.14 6.62Q39.34 7.01 39.34 7.58Q39.34 8.16 38.96 8.58Q38.59 9.00 37.92 9.00L37.92 9.00Q36.79 9.00 36.79 7.67Q36.79 6.34 37.80 5.62Q38.81 4.90 40.63 4.90Q42.46 4.90 43.45 5.75Q44.45 6.60 44.45 8.09ZM42.48 11.95L42.48 11.95Q41.50 11.11 40.37 11.11L40.37 11.11Q38.21 11.11 38.21 13.03L38.21 13.03Q38.21 15.00 39.91 15.00L39.91 15.00Q40.54 15.00 41.24 14.68Q41.95 14.35 42.36 13.87L42.36 13.87Q42.48 12.43 42.48 11.95ZM54.79 9.86L54.79 9.86Q54.79 6.43 52.75 6.43L52.75 6.43Q51.29 6.43 49.97 7.99L49.97 7.99L49.97 14.45Q51.07 15.00 52.30 15.00L52.30 15.00Q54.79 15.00 54.79 9.86ZM49.97 6.53L49.97 6.53Q51.65 4.90 53.35 4.90Q55.06 4.90 55.94 6.29Q56.83 7.68 56.83 10.18L56.83 10.18Q56.83 13.56 55.67 15.14Q54.50 16.73 52.01 16.73L52.01 16.73Q50.45 16.73 47.86 16.10L47.86 16.10Q48.24 13.75 48.24 8.47Q48.24 3.19 48.12 1.63L48.12 1.63L47.16 1.56Q47.09 1.27 47.09 0.82Q47.09 0.36 47.11 0.22L47.11 0.22Q49.25 0.12 50.23 0L50.23 0L50.33 0.12Q49.99 3.00 49.97 6.53ZM70.15 15.14L70.15 15.14Q68.02 16.73 65.11 16.73Q62.21 16.73 60.78 14.76Q59.35 12.79 59.35 8.74L59.35 8.74Q59.35 0.65 65.38 0.65L65.38 0.65Q67.06 0.65 68.23 1.31Q69.41 1.97 69.91 3.19L69.91 3.19Q70.06 3.62 70.06 4.13L70.06 4.13Q70.06 5.57 68.81 5.57L68.81 5.57Q68.06 5.57 67.66 5.11Q67.25 4.66 67.25 3.94Q67.25 3.22 67.54 2.81L67.54 2.81Q66.77 2.06 65.38 2.06L65.38 2.06Q63.38 2.06 62.35 3.71Q61.32 5.35 61.32 8.54L61.32 8.54Q61.32 14.95 65.30 14.95L65.30 14.95Q67.25 14.95 68.59 13.85L68.59 13.85Q68.57 11.93 68.42 10.56L68.42 10.56Q65.54 10.66 64.56 10.82L64.56 10.82Q64.44 10.18 64.44 9.58Q64.44 8.98 64.46 8.76L64.46 8.76Q65.69 8.95 67.54 8.95Q69.38 8.95 70.39 8.88L70.39 8.88Q70.15 11.42 70.15 15.14ZM72.58 15.05L73.42 14.98Q73.63 12.58 73.63 10.57Q73.63 8.57 73.44 6.60L73.44 6.60L72.55 6.53Q72.48 6.14 72.48 5.74Q72.48 5.33 72.50 5.18L72.50 5.18Q73.73 5.16 75.48 4.97L75.48 4.97L75.60 5.09Q75.58 5.23 75.46 6.50L75.46 6.50Q76.01 5.81 76.74 5.35Q77.47 4.90 78.18 4.90Q78.89 4.90 79.42 5.40Q79.94 5.90 79.94 6.72L79.94 6.72Q79.94 8.06 78.82 8.06L78.82 8.06Q78.17 8.06 77.78 7.64Q77.40 7.22 77.40 6.53L77.40 6.53Q77.35 6.50 77.23 6.50L77.23 6.50Q76.34 6.50 75.41 7.85L75.41 7.85Q75.38 8.52 75.38 10.86Q75.38 13.20 75.60 14.98L75.60 14.98L76.49 15.05Q76.54 15.58 76.54 15.78Q76.54 15.98 76.46 16.39L76.46 16.39Q75.79 16.37 74.50 16.37Q73.20 16.37 72.60 16.39L72.60 16.39Q72.53 16.03 72.53 15.71Q72.53 15.38 72.58 15.05L72.58 15.05ZM81.12 10.68Q81.12 4.90 85.63 4.90Q90.14 4.90 90.14 10.68L90.14 10.68Q90.14 13.34 89.30 14.90L89.30 14.90Q88.34 16.73 85.63 16.73Q82.92 16.73 81.96 14.90L81.96 14.90Q81.12 13.34 81.12 10.68L81.12 10.68ZM83.09 10.62Q83.09 15.00 85.63 15.00Q88.18 15.00 88.18 10.62Q88.18 6.24 85.63 6.24Q83.09 6.24 83.09 10.62ZM93.19 13.27L93.19 13.27L93.22 10.70Q93.22 8.57 93.02 6.60L93.02 6.60L92.14 6.53Q92.06 6.14 92.06 5.74Q92.06 5.33 92.09 5.18L92.09 5.18Q93.31 5.16 95.06 4.97L95.06 4.97L95.18 5.09Q94.97 6.50 94.97 10.15L94.97 10.15L94.97 11.28Q94.97 13.30 95.34 14.15Q95.71 15.00 96.60 15.00L96.60 15.00Q97.85 15.00 99.31 13.54L99.31 13.54Q99.36 12.98 99.36 11.40L99.36 11.40L99.36 10.70Q99.36 8.57 99.17 6.60L99.17 6.60L98.28 6.53Q98.21 6.12 98.21 5.72Q98.21 5.33 98.23 5.18L98.23 5.18Q99.46 5.16 101.21 4.97L101.21 4.97L101.33 5.09Q101.11 6.50 101.11 10.15L101.11 10.15L101.11 10.92Q101.11 12.89 101.33 14.76L101.33 14.76L102.22 14.81Q102.26 15.34 102.26 15.59Q102.26 15.84 102.19 16.20L102.19 16.20Q101.26 16.25 99.58 16.44L99.58 16.44Q99.38 16.01 99.29 15.24L99.29 15.24Q97.49 16.73 95.98 16.73Q94.46 16.73 93.83 15.89Q93.19 15.05 93.19 13.27ZM110.54 4.90L110.54 4.90Q113.93 4.90 113.93 10.66L113.93 10.66Q113.93 12.86 113.06 14.66L113.06 14.66Q112.58 15.62 111.62 16.18Q110.66 16.73 109.49 16.73Q108.31 16.73 107.04 16.15L107.04 16.15Q107.16 19.15 107.26 19.99L107.26 19.99L108.14 20.06L108.19 20.69Q108.19 21.17 108.12 21.41L108.12 21.41Q107.54 21.38 106.14 21.38Q104.74 21.38 104.26 21.41L104.26 21.41Q104.18 21 104.18 20.69Q104.18 20.38 104.23 20.06L104.23 20.06L105.12 19.99Q105.31 17.38 105.31 13.00Q105.31 8.62 105.12 6.60L105.12 6.60L104.23 6.53Q104.16 6.31 104.16 5.84Q104.16 5.38 104.18 5.18L104.18 5.18Q105.29 5.16 107.14 4.97L107.14 4.97L107.26 5.09Q107.16 5.78 107.14 6.46L107.14 6.46Q108.79 4.90 110.54 4.90ZM109.27 15.00L109.27 15.00Q111.89 15.00 111.89 10.34L111.89 10.34Q111.89 7.51 110.95 6.77L110.95 6.77Q110.52 6.43 109.82 6.43Q109.13 6.43 108.36 6.89Q107.59 7.34 107.06 7.99L107.06 7.99Q107.02 9.98 107.02 14.45L107.02 14.45Q108.41 15.00 109.27 15.00ZM119.95 4.90Q121.63 4.90 122.63 5.69Q123.62 6.48 123.62 7.74Q123.62 9.00 122.50 9.00L122.50 9.00Q121.82 9.00 121.45 8.58Q121.08 8.16 121.08 7.58Q121.08 7.01 121.27 6.62L121.27 6.62Q120.70 6.17 119.90 6.17Q119.11 6.17 118.60 6.55Q118.08 6.94 118.08 7.68Q118.08 8.42 118.67 8.98Q119.26 9.53 120.10 9.88Q120.94 10.22 121.78 10.60Q122.62 10.97 123.20 11.65Q123.79 12.34 123.79 13.34L123.79 13.34Q123.79 14.90 122.75 15.82Q121.70 16.73 119.90 16.73Q118.10 16.73 116.96 15.96Q115.82 15.19 115.82 13.94L115.82 13.94L115.82 13.85Q115.82 12.55 116.95 12.55L116.95 12.55Q117.62 12.55 118.00 12.97Q118.37 13.39 118.37 13.94Q118.37 14.50 118.25 14.81L118.25 14.81Q118.73 15.12 119.77 15.12Q120.82 15.12 121.36 14.76Q121.90 14.40 121.90 13.76Q121.90 13.13 121.31 12.62Q120.72 12.12 119.88 11.77Q119.04 11.42 118.20 11.03Q117.36 10.63 116.77 9.89Q116.18 9.14 116.18 8.11L116.18 8.11Q116.18 6.62 117.23 5.76Q118.27 4.90 119.95 4.90Z" transform="translate(45.496, 6.316)"></path></svg>